<?xml version="1.0" standalone="no"?><!DOCTYPE svg PUBLIC "-//W3C//DTD SVG 1.1//EN" "http://www.w3.org/Graphics/SVG/1.1/DTD/svg11.dtd"><svg class="icon" width="64px" height="64.00px" viewBox="0 0 1024 1024" version="1.1" xmlns="http://www.w3.org/2000/svg"><path fill="#ffffff" d="M236.328692 56.452882C284.391444 56.452882 329.544149 75.176174 363.51668 109.148706 397.489211 143.121236 416.212503 188.299942 416.212503 236.329693L416.212503 416.213503 236.328692 416.213503C188.273942 416.213503 143.121236 397.517211 109.146705 363.51768 75.174175 329.544149 56.451882 284.358443 56.451882 236.329693 56.451882 188.299942 75.142174 143.121236 109.146705 109.148706 143.121236 75.142174 188.299942 56.452882 236.328692 56.452882L236.328692 56.452882 236.328692 56.452882ZM236.444695 0C105.875654 0 0 105.848654 0 236.444695 0 367.017735 105.848654 472.892389 236.444695 472.892389L419.599556 472.892389C449.018016 472.892389 472.859388 449.020016 472.859388 419.599556L472.859388 236.444695C472.892389 105.848654 367.043735 0 236.444695 0L236.444695 0 236.444695 0 236.444695 0 236.444695 0ZM236.986703 610.918546 236.986703 610.918546 413.081454 610.918546 413.081454 787.013296C413.081454 834.048029 394.761168 878.26372 361.497648 911.525244 328.236129 944.786761 284.017438 963.109047 236.986703 963.109047 189.951968 963.109047 145.736277 944.786761 112.474757 911.525244 79.213237 878.26372 60.890951 834.049031 60.890951 787.014298 60.890951 739.982563 79.213237 695.763871 112.474757 662.503352 145.736277 629.241832 189.950968 610.918546 236.986703 610.918546L236.986703 610.918546 236.986703 610.918546ZM236.444695 551.107611C105.875654 551.107611 0 656.956265 0 787.556308 0 918.123344 105.848654 1024 236.444695 1024 367.016735 1024 472.892389 918.151344 472.892389 787.556308L472.892389 604.400444C472.892389 574.979984 449.019016 551.107611 419.599556 551.107611L236.444695 551.107611 236.444695 551.107611 236.444695 551.107611 236.444695 551.107611 236.444695 551.107611ZM789.916343 55.539868C837.602085 55.539868 882.447792 74.122158 916.159312 107.839685 949.87784 141.552212 968.461129 186.395913 968.461129 234.083658 968.461129 281.770402 949.878843 326.614103 916.159312 360.33263 882.447792 394.050157 837.604089 412.626447 789.916343 412.626447L611.373553 412.626447 611.373553 234.083658C611.373553 186.395913 629.949843 141.552212 663.66837 107.839685 697.386897 74.122158 742.228597 55.539868 789.916343 55.539868L789.916343 55.539868 789.916343 55.539868ZM787.584307 0C657.010266 0 551.138611 105.848654 551.138611 236.444695L551.138611 419.599556C551.138611 449.020016 574.979984 472.860388 604.426444 472.860388L787.583305 472.860388C918.150349 472.860388 1024.026997 367.016735 1024.026997 236.415694 1024.026997 105.848654 918.151344 0 787.584307 0L787.584307 0 787.584307 0 787.584307 0 787.584307 0ZM787.524308 610.147534 787.524308 610.147534C834.903047 610.147534 879.430744 628.614822 912.947266 662.105345 946.437786 695.593868 964.905077 740.151567 964.905077 787.523306 964.905077 834.901043 946.46479 879.456739 912.947266 912.946264 879.458743 946.435789 834.901043 964.904075 787.524308 964.904075 740.151567 964.904075 695.623869 946.463788 662.106345 912.946264 628.615822 879.42874 610.148533 834.900048 610.148533 787.523306L610.148533 610.147534 787.524308 610.147534 787.524308 610.147534 787.524308 610.147534ZM787.584307 551.107611 604.427444 551.107611C575.006985 551.107611 551.139612 574.953984 551.139612 604.400444L551.139612 787.556308C551.139612 918.123344 656.983265 1024 787.584307 1024 918.151344 1024 1024.027999 918.151344 1024.027999 787.556308 1024.026997 656.983265 918.151344 551.107611 787.584307 551.107611L787.584307 551.107611 787.584307 551.107611 787.584307 551.107611 787.584307 551.107611Z" /></svg>