<?xml version="1.0" standalone="no"?><!DOCTYPE svg PUBLIC "-//W3C//DTD SVG 1.1//EN" "http://www.w3.org/Graphics/SVG/1.1/DTD/svg11.dtd"><svg class="icon" width="64px" height="63.81px" viewBox="0 0 1027 1024" version="1.1" xmlns="http://www.w3.org/2000/svg"><path fill="#ffffff" d="M660.990294 974.33858c-17.202029 0-31.19053-13.848857-31.19053-31.049162s13.988501-31.049162 31.19053-31.049162l221.809286 0c23.567021 0 42.743025-19.751819 42.743025-43.322288L925.542606 684.07632c0-17.200305 13.850581-31.19053 31.05261-31.19053 17.196857 0 31.045715 13.990225 31.045715 31.19053l0 184.845095c0 57.969355-46.871995 105.415441-104.84135 105.415441L660.990294 974.336856 660.990294 974.33858zM143.432994 974.33858c-57.969355 0-104.551719-47.446086-104.551719-105.415441L38.881275 684.07632c0-17.200305 13.850581-31.19053 31.047439-31.19053 17.200305 0 31.047439 13.990225 31.047439 31.19053l0 184.845095c0 23.570469 18.886373 43.322288 42.456842 43.322288l184.841647 0c17.198581 0 31.192254 13.848857 31.192254 31.049162 0 17.196857-13.993673 31.045715-31.192254 31.045715L143.432994 974.33858 143.432994 974.33858zM32.528351 531.007915c-17.198581 0-31.192254-14.572936-31.192254-31.774965s13.993673-31.768069 31.192254-31.768069l961.179321 0c17.200305 0 31.19053 14.569488 31.19053 31.768069 0 17.202029-13.990225 31.774965-31.19053 31.774965L32.528351 531.007915zM956.595216 345.587005c-17.202029 0-31.05261-13.991949-31.05261-31.192254L925.542606 129.551381c0-23.567021-19.176004-43.322288-42.743025-43.322288l-221.809286 0c-17.202029 0-31.192254-13.848857-31.192254-31.047439S643.789989 24.13594 660.990294 24.13594l221.809286 0c57.969355 0 104.84135 47.449534 104.84135 105.417165l0 184.841647C987.639207 331.593332 973.790349 345.587005 956.595216 345.587005M69.930437 345.587005c-17.198581 0-31.047439-13.991949-31.047439-31.192254L38.882999 129.551381C38.882999 71.583749 85.467087 24.13594 143.434718 24.13594l184.841647 0c17.198581 0 31.192254 13.848857 31.192254 31.047439 0 17.200305-13.993673 31.047439-31.192254 31.047439L143.432994 86.230817c-23.570469 0-42.456842 19.753543-42.456842 43.322288l0 184.841647C100.976152 331.593332 87.129019 345.587005 69.930437 345.587005" /></svg>